<svg xmlns="http://www.w3.org/2000/svg" version="1.0" width="664.000000pt" height="558.000000pt" viewBox="0 0 664.000000 558.000000" preserveAspectRatio="xMidYMid meet">
<metadata>
Created by potrace 1.16, written by Peter Selinger 2001-2019
</metadata>
<g transform="translate(0.000000,558.000000) scale(0.100000,-0.100000)" fill="#fff" stroke="none">
<path d="M2915 5535 c-1220 -142 -2181 -1054 -2339 -2220 -51 -382 -15 -761 107 -1120 50 -145 71 -194 148 -348 38 -76 67 -143 63 -148 -3 -5 -22 -18 -42 -28 -84 -43 -193 -182 -191 -243 1 -20 2 -19 14 8 41 93 175 194 415 311 472 231 990 361 1650 415 198 16 974 16 1160 0 445 -39 767 -97 1090 -197 47 -15 100 -31 119 -37 63 -18 336 -136 458 -197 161 -81 238 -131 310 -203 43 -43 35 -48 -9 -6 -45 42 -82 73 -86 70 -1 -2 -64 27 -140 64 -545 262 -1001 385 -1662 446 -197 18 -306 21 -670 22 -410 0 -529 -5 -800 -34 -449 -49 -849 -146 -1210 -294 -177 -73 -434 -203 -504 -257 -62 -47 -121 -121 -133 -167 -3 -12 0 -43 6 -68 7 -26 11 -48 9 -49 -2 -1 -52 -21 -113 -44 -60 -23 -139 -56 -175 -74 -159 -76 -370 -201 -370 -219 0 -24 35 -14 111 33 179 110 542 273 563 252 14 -14 4 -42 -16 -48 -78 -23 -232 -86 -346 -142 -117 -58 -252 -136 -252 -146 0 -2 70 -57 156 -122 l156 -118 -5 -46 c-2 -25 -14 -135 -27 -244 -13 -108 -20 -200 -16 -204 3 -3 27 6 54 21 259 147 536 256 839 330 167 41 239 52 468 71 189 16 249 31 300 80 19 18 35 30 35 27 0 -18 -50 -74 -89 -100 -51 -35 -93 -43 -311 -62 -380 -32 -772 -149 -1162 -347 -137 -69 -158 -84 -158 -114 0 -16 24 -7 155 62 273 142 447 207 770 287 150 38 294 60 465 72 72 5 148 12 168 16 102 19 197 134 170 203 -24 60 -34 72 -75 92 -37 18 -57 21 -109 16 -68 -5 -124 -29 -320 -136 -124 -67 -242 -107 -374 -126 -140 -21 -192 -11 -252 46 -38 36 -40 41 -34 80 14 89 95 164 267 246 220 106 391 160 789 248 190 42 509 81 780 95 255 14 954 14 1195 0 202 -12 550 -50 675 -74 372 -73 580 -132 788 -224 175 -77 249 -120 300 -177 84 -92 88 -162 13 -212 -57 -38 -105 -46 -201 -34 -172 22 -267 56 -480 171 -80 43 -163 83 -185 89 -118 32 -213 -6 -243 -97 -26 -76 60 -179 169 -206 15 -3 89 -10 164 -16 450 -32 921 -176 1322 -403 64 -36 76 -36 67 0 -9 34 -335 195 -544 269 -127 45 -353 109 -470 133 -91 19 -130 24 -428 55 -113 12 -139 19 -176 42 -44 28 -94 89 -82 101 3 3 6 1 6 -5 0 -19 74 -62 132 -77 29 -7 105 -16 168 -20 305 -17 654 -98 969 -224 72 -29 348 -168 384 -193 l27 -19 0 23 c0 13 -9 102 -20 198 -12 96 -23 200 -26 230 l-6 55 123 96 c68 53 139 106 157 119 17 13 32 26 32 30 0 7 -82 56 -200 119 -104 55 -247 116 -352 150 -76 25 -83 31 -65 55 11 15 19 13 92 -13 171 -62 289 -119 472 -228 83 -49 113 -58 113 -34 0 16 -212 142 -360 213 -53 25 -142 63 -199 83 -92 35 -102 41 -96 59 4 12 9 53 12 92 5 62 2 79 -19 126 -42 90 -133 167 -290 244 -32 16 -58 32 -58 36 0 5 16 40 36 79 126 251 207 503 251 782 25 160 25 537 -1 702 -54 351 -185 704 -367 985 -300 465 -725 816 -1251 1033 -200 83 -485 155 -723 182 -157 18 -475 18 -630 0z m131 -221 c36 -24 57 -71 57 -129 1 -101 -51 -150 -161 -150 -60 0 -65 2 -97 37 -81 88 -43 239 65 261 41 8 108 -1 136 -19z m214 -84 l0 -110 70 0 70 0 0 -35 0 -35 -115 0 -115 0 0 145 0 145 45 0 45 0 0 -110z m320 71 c0 -14 -7 -64 -15 -111 -8 -47 -15 -86 -15 -86 0 -1 21 -5 48 -9 92 -13 95 -14 88 -48 -3 -17 -8 -32 -10 -34 -3 -3 -218 27 -224 32 -3 2 37 262 42 280 2 6 22 9 45 7 37 -4 41 -7 41 -31z m-917 -30 c27 -10 57 -38 57 -51 0 -5 -13 -16 -30 -25 -27 -14 -32 -14 -54 0 -29 19 -71 6 -81 -25 -8 -25 2 -77 21 -107 25 -40 94 -20 94 26 0 18 6 21 46 21 43 0 46 -2 40 -22 -3 -13 -6 -28 -6 -34 0 -19 -36 -53 -73 -69 -109 -45 -199 11 -214 134 -9 74 21 121 94 147 45 16 73 17 106 5z m1227 -16 c150 -37 141 -33 134 -63 -4 -15 -8 -28 -9 -30 -2 -2 -30 4 -63 12 -78 21 -92 20 -92 -4 0 -19 9 -23 103 -46 25 -6 28 -10 22 -33 -4 -14 -8 -27 -10 -29 -1 -2 -31 4 -66 12 -66 15 -78 11 -79 -25 0 -11 21 -20 76 -33 58 -14 74 -21 70 -33 -3 -8 -6 -21 -6 -29 0 -20 -20 -18 -143 12 -87 22 -107 30 -103 43 3 9 19 73 37 144 26 105 35 127 48 123 9 -3 45 -12 81 -21z m389 -135 c48 -24 71 -55 71 -93 0 -22 -4 -27 -17 -23 -10 3 -30 8 -45 12 -16 3 -28 12 -28 20 0 7 -11 21 -25 30 -53 35 -112 -31 -106 -118 1 -19 49 -48 79 -48 31 0 34 26 5 39 -21 10 -24 16 -18 39 4 15 8 28 9 29 1 2 32 -9 68 -23 l65 -26 -19 -52 c-26 -68 -41 -79 -104 -73 -61 6 -124 36 -153 73 -51 64 -8 198 74 235 29 13 99 3 144 -21z m-2052 -15 c11 -25 9 -27 -58 -61 -62 -30 -68 -37 -59 -54 10 -18 12 -18 73 10 65 30 71 29 81 -7 6 -19 -1 -25 -54 -49 -61 -27 -64 -31 -54 -58 8 -22 27 -20 84 9 27 14 56 25 63 25 12 0 43 -49 35 -54 -30 -19 -213 -96 -221 -93 -6 2 -36 60 -68 130 l-58 128 102 49 c56 26 107 49 112 49 6 1 15 -10 22 -24z m2406 -182 c23 -15 44 -28 46 -30 7 -5 -21 -53 -31 -53 -4 0 -33 17 -64 37 -51 34 -56 35 -71 20 -9 -9 -15 -18 -12 -20 2 -2 28 -18 57 -36 54 -34 60 -45 39 -73 -12 -15 -18 -13 -67 18 -30 18 -60 34 -67 34 -11 0 -29 -38 -21 -45 1 -1 29 -19 61 -39 31 -20 57 -39 57 -42 0 -5 -20 -46 -26 -53 -2 -2 -50 27 -108 64 l-105 67 26 41 c14 23 50 79 80 125 l53 82 56 -35 c31 -20 74 -48 97 -62z m-2705 33 c10 -23 7 -27 -48 -63 -33 -21 -60 -44 -60 -51 0 -27 30 -22 84 12 l54 35 16 -24 c15 -22 14 -24 -17 -48 -18 -13 -42 -29 -54 -36 -26 -14 -29 -33 -8 -51 12 -10 26 -5 75 25 59 36 62 36 81 20 10 -10 19 -22 19 -27 0 -4 -46 -38 -101 -74 -73 -47 -105 -62 -112 -55 -6 6 -43 62 -82 123 l-72 112 96 63 c53 34 101 63 107 63 6 0 16 -11 22 -24z m1532 -151 c579 -69 1069 -366 1387 -840 120 -179 215 -407 265 -635 20 -92 22 -134 23 -335 0 -268 -12 -353 -81 -563 -41 -126 -124 -310 -163 -361 l-18 -23 -152 36 c-83 20 -209 45 -280 56 -71 11 -135 22 -143 25 -13 5 -251 28 -410 41 -49 3 -88 10 -88 15 0 19 47 26 107 16 73 -11 100 -6 136 27 36 34 37 79 1 103 -22 14 -32 15 -70 5 -61 -16 -62 -16 -66 20 -5 48 -45 73 -119 72 l-60 -1 6 91 c10 165 15 195 29 190 7 -3 139 45 292 106 154 62 365 146 469 187 105 42 193 79 197 82 3 3 2 31 -4 61 -8 46 -27 78 -122 210 -147 205 -150 209 -137 224 13 15 32 -12 -273 395 -138 183 -269 359 -291 390 -77 110 -206 281 -212 281 -3 0 -21 -14 -41 -31 -31 -28 -40 -31 -84 -27 -26 3 -48 1 -48 -4 0 -23 -90 -140 -160 -208 -92 -90 -144 -117 -311 -166 -156 -45 -227 -82 -236 -125 -4 -23 -9 -28 -22 -22 -31 15 -108 7 -146 -16 -20 -11 -69 -35 -108 -52 -40 -16 -110 -54 -157 -83 -47 -30 -107 -62 -135 -71 -68 -24 -197 -30 -262 -12 -29 8 -53 11 -53 8 0 -3 9 -21 20 -38 21 -34 19 -36 -17 -33 -15 1 -23 -4 -23 -15 0 -10 -5 -13 -11 -9 -9 5 -10 -1 -5 -20 5 -19 2 -28 -9 -32 -8 -4 -15 -14 -15 -23 0 -9 -13 -25 -30 -34 -16 -10 -30 -24 -30 -30 0 -11 77 -138 162 -267 42 -64 334 -518 451 -702 45 -71 87 -128 93 -128 6 0 110 24 230 54 121 30 289 71 374 91 85 20 162 38 171 41 14 4 17 -9 23 -83 3 -48 7 -101 8 -118 l3 -30 -96 0 c-81 0 -100 -3 -118 -19 -34 -30 -27 -62 19 -91 34 -22 39 -28 30 -45 -11 -20 -21 -24 -83 -35 -41 -7 -56 -27 -38 -49 15 -18 -41 -34 -149 -40 -325 -20 -701 -66 -860 -106 -25 -6 -90 -21 -145 -35 -55 -13 -136 -33 -180 -45 l-80 -22 -22 29 c-40 49 -150 284 -186 398 -67 208 -82 313 -81 555 0 193 3 228 27 341 76 357 235 655 492 915 415 421 1021 631 1615 559z m-1786 -74 c26 -22 35 -51 25 -83 -7 -26 -5 -28 20 -28 25 0 97 -24 110 -36 3 -2 -10 -20 -29 -39 l-33 -34 -51 20 c-53 20 -96 25 -96 11 0 -5 16 -27 35 -49 l34 -40 -33 -32 -33 -32 -91 105 c-50 58 -93 109 -94 115 -4 13 120 120 156 136 32 14 51 11 80 -14z m3241 -101 l-35 -36 35 -34 35 -34 33 32 c18 18 38 32 43 32 6 0 22 -13 37 -28 l27 -28 -100 -99 c-54 -55 -103 -101 -107 -102 -5 -2 -22 10 -37 26 l-28 29 37 40 c39 44 39 57 -4 96 -21 20 -22 19 -59 -22 -21 -23 -42 -42 -48 -42 -5 0 -22 14 -37 30 l-29 29 103 105 103 106 33 -32 33 -32 -35 -36z m-1159 -196 c76 -97 159 -203 184 -235 25 -32 68 -86 95 -121 159 -201 355 -454 355 -460 0 -4 -9 -10 -21 -13 -14 -5 -25 -1 -34 12 -7 10 -42 55 -77 99 -60 77 -300 387 -471 608 -139 180 -197 258 -197 266 0 8 11 20 20 20 4 0 69 -79 146 -176z m-35 -46 c111 -145 203 -265 457 -597 40 -52 72 -100 72 -108 0 -39 -99 -179 -170 -240 -19 -16 -80 -60 -135 -98 -55 -38 -118 -83 -141 -102 -22 -18 -44 -30 -47 -26 -15 15 -6 61 15 75 16 11 20 20 15 39 -19 73 -78 119 -152 119 -33 0 -35 2 -35 33 0 26 9 43 39 74 71 72 72 136 5 284 -32 72 -34 82 -32 177 2 114 -9 141 -67 169 -42 20 -56 11 -28 -20 45 -50 37 -136 -28 -292 -52 -124 -59 -184 -30 -247 12 -25 38 -60 57 -78 30 -27 35 -37 32 -68 -3 -33 -6 -37 -36 -39 -24 -2 -45 -15 -77 -48 -48 -48 -61 -79 -51 -125 3 -18 1 -30 -5 -30 -24 0 -48 23 -84 82 -21 35 -68 108 -104 163 -36 55 -73 114 -82 130 -9 17 -69 111 -133 210 -142 221 -159 251 -151 276 8 25 30 36 133 66 104 30 196 75 321 159 134 88 229 169 260 220 25 42 27 43 41 24 8 -11 72 -93 141 -182z m-2318 86 c3 -4 -3 -24 -14 -45 -14 -28 -26 -39 -42 -39 -56 0 -66 -72 -16 -114 58 -49 105 -44 129 14 10 24 10 34 1 43 -9 9 -16 7 -30 -12 -16 -21 -20 -22 -39 -10 -12 8 -22 18 -22 23 0 11 72 106 80 106 4 0 28 -17 54 -37 45 -35 47 -39 41 -72 -15 -87 -96 -171 -164 -171 -79 1 -161 78 -161 152 0 55 43 126 94 155 22 13 78 17 89 7z m3853 -167 c3 -11 -19 -54 -67 -125 -101 -152 -99 -149 -128 -106 -21 30 -22 38 -12 58 11 20 10 29 -14 64 -24 36 -31 40 -55 35 -25 -4 -32 0 -49 28 -26 42 -33 38 144 84 l130 33 23 -26 c12 -15 25 -35 28 -45z m-4086 -129 c0 -4 -13 -32 -30 -61 -16 -30 -30 -58 -30 -64 0 -13 34 -27 37 -16 2 4 17 32 33 61 28 48 32 51 53 41 12 -7 23 -13 25 -14 2 -2 -11 -31 -28 -65 -30 -59 -30 -63 -13 -76 10 -7 20 -14 23 -14 3 0 21 28 39 63 19 34 36 64 37 66 2 2 17 -2 33 -9 l31 -12 -58 -109 c-31 -60 -60 -109 -64 -109 -15 0 -248 133 -248 143 0 10 85 172 102 194 7 9 16 9 34 1 13 -6 24 -15 24 -20z m2412 -40 c8 -14 12 -65 13 -133 0 -104 2 -114 32 -171 62 -119 65 -203 10 -255 -57 -54 -111 -39 -153 43 -35 69 -31 115 20 241 54 132 71 214 56 269 -10 34 4 37 22 6z m1798 -12 c0 -2 7 -19 15 -38 14 -34 13 -37 -31 -112 -25 -43 -44 -79 -42 -81 2 -1 30 10 63 26 33 16 63 29 68 29 9 0 43 -68 36 -74 -6 -6 -189 -96 -227 -111 -31 -14 -32 -13 -47 15 -21 41 -20 50 25 128 22 38 40 72 40 76 0 3 -21 -4 -47 -18 -82 -40 -86 -40 -108 1 -11 21 -16 38 -10 40 6 2 64 30 130 62 116 57 135 65 135 57z m-2594 -50 c11 -8 53 -65 93 -128 128 -200 269 -421 303 -478 19 -30 57 -92 85 -136 37 -59 49 -84 41 -92 -7 -7 -11 -50 -10 -109 2 -96 -18 -203 -37 -203 -30 0 -295 -32 -336 -40 -91 -19 -172 -48 -256 -92 -46 -23 -86 -44 -89 -46 -3 -1 -11 12 -18 30 -28 77 -150 293 -254 447 -66 98 -139 224 -180 308 -37 78 -88 170 -112 205 -78 114 -80 106 33 100 60 -3 120 0 152 8 67 15 208 81 334 155 53 31 111 63 128 70 42 18 97 19 123 1z m-1660 -232 c81 -41 94 -96 49 -216 -16 -40 -29 -74 -30 -76 -2 -2 -265 97 -273 103 -5 4 62 161 77 179 9 10 25 22 36 27 29 13 97 5 141 -17z m865 -95 c16 -17 65 -104 109 -193 46 -94 126 -231 189 -327 108 -162 245 -407 257 -458 10 -42 -3 -22 -178 259 -322 518 -448 727 -448 745 0 17 46 0 71 -26z m3567 -61 c12 -46 22 -91 22 -101 0 -60 -85 -120 -171 -121 -68 -1 -102 34 -134 138 -14 44 -22 82 -19 85 8 8 237 79 259 80 17 1 24 -12 43 -81z m-3567 -76 c155 -258 316 -518 459 -745 l93 -148 -13 -39 c-7 -22 -17 -40 -21 -40 -4 0 -24 30 -45 68 -20 37 -49 85 -64 107 -15 22 -43 65 -62 95 -42 65 -291 463 -335 535 -18 28 -54 86 -81 130 -39 62 -49 86 -45 108 3 15 12 27 20 27 11 0 14 7 10 21 -8 31 0 19 84 -119z m2314 13 c17 -24 33 -45 38 -45 21 0 -3 -33 -77 -100 -45 -41 -177 -164 -294 -273 l-212 -199 0 51 c0 54 -9 44 136 159 l29 23 -35 -22 c-19 -13 -56 -40 -81 -61 l-47 -38 -4 29 c-5 36 23 62 217 197 140 97 224 184 267 274 13 28 25 50 28 50 3 0 19 -20 35 -45z m-602 -207 c48 -25 81 -88 58 -111 -6 -6 -11 -8 -11 -3 0 4 -8 0 -17 -9 -12 -12 -26 -15 -51 -12 -29 5 -33 4 -27 -11 15 -37 18 -132 5 -162 -11 -26 -17 -30 -37 -26 -31 8 -30 -14 1 -124 13 -47 32 -144 42 -217 15 -113 16 -134 4 -148 -13 -16 -15 -15 -32 4 -9 12 -20 43 -23 69 -11 86 -14 95 -30 82 -7 -6 -15 -7 -18 -3 -12 21 -17 166 -7 233 17 114 14 230 -5 249 -15 15 -17 14 -26 -2 -15 -27 -40 -2 -38 37 3 36 -9 76 -21 76 -11 0 -40 -29 -40 -41 0 -13 18 -11 23 4 8 22 20 -2 23 -44 3 -53 26 -79 54 -61 17 10 20 8 25 -21 4 -18 -1 -86 -9 -151 -22 -162 -8 -306 28 -306 9 0 16 -18 21 -56 6 -54 37 -104 63 -104 13 0 28 21 35 48 9 37 -20 251 -48 345 -30 105 -30 107 -5 107 13 0 20 -7 20 -20 0 -11 11 -27 25 -36 15 -10 25 -26 25 -40 0 -14 6 -40 14 -59 13 -29 13 -64 4 -222 -5 -104 -10 -200 -11 -216 0 -16 10 -38 23 -52 18 -20 21 -28 12 -37 -7 -7 -12 -20 -12 -29 0 -10 -12 -26 -26 -36 -23 -17 -24 -21 -13 -46 17 -38 7 -43 -49 -19 -41 18 -54 19 -85 10 -32 -10 -40 -9 -57 7 -28 25 -39 9 -12 -17 20 -20 26 -21 64 -11 33 9 48 9 68 -2 21 -12 -20 -14 -289 -13 -173 1 -304 5 -292 9 25 10 27 24 6 33 -29 11 -14 24 37 30 85 12 103 59 38 102 -22 15 -40 29 -40 31 0 19 26 44 53 51 37 10 134 4 142 -9 3 -4 -9 -21 -27 -38 -18 -16 -29 -34 -24 -38 4 -4 28 14 53 40 l46 49 -9 56 c-11 76 -6 325 7 384 8 36 18 51 37 60 26 13 48 63 31 74 -5 3 -13 -6 -18 -19 -13 -35 -28 -41 -36 -16 -9 29 -19 15 -22 -32 -3 -43 -34 -120 -41 -101 -2 6 4 38 14 69 12 40 17 87 16 151 -2 111 7 136 43 122 42 -16 53 -5 47 51 -4 43 -1 54 19 76 45 48 92 52 103 9 9 -35 55 -51 101 -36 31 10 36 15 30 34 -18 59 -18 66 4 66 12 0 32 -5 44 -12z m1932 -34 c3 -20 4 -38 2 -41 -3 -2 -38 -14 -78 -27 l-74 -23 80 -14 80 -15 3 -45 3 -45 -66 -23 c-36 -13 -67 -26 -70 -30 -2 -4 17 -8 43 -9 89 -4 99 -9 105 -50 2 -20 3 -39 1 -41 -2 -2 -69 4 -148 14 l-144 18 -6 30 c-12 59 -10 61 74 91 44 15 78 31 75 36 -2 4 -38 13 -80 20 -42 7 -77 16 -79 19 -2 3 -6 24 -7 45 l-4 40 130 43 c72 23 135 43 141 43 7 0 15 -16 19 -36z m-4777 -82 c8 -6 11 -22 7 -50 l-5 -42 88 0 c126 0 132 -3 132 -57 l0 -44 -110 7 -110 7 0 -47 0 -46 -39 0 -40 0 5 128 c3 70 7 133 10 140 4 14 42 16 62 4z m2882 -168 c0 -69 5 -145 11 -169 14 -55 8 -80 -11 -45 -8 14 -14 50 -14 80 0 30 -2 47 -4 38 -2 -10 -12 -18 -23 -18 -26 0 -35 42 -19 90 8 24 11 61 7 94 -5 51 -4 55 16 58 12 2 25 2 30 0 4 -2 7 -59 7 -128z m963 39 c4 -21 3 -41 -1 -44 -4 -4 -173 -73 -377 -154 -203 -80 -405 -160 -447 -177 -43 -18 -80 -29 -84 -25 -15 14 37 65 78 76 58 14 539 227 532 234 -3 3 4 3 17 0 13 -4 20 -2 16 3 -3 6 4 11 15 11 12 1 24 6 27 10 3 4 13 9 22 11 22 3 96 41 84 42 -12 1 85 48 101 49 6 1 14 -16 17 -36z m-3680 -254 l68 -20 -3 -50 -3 -50 -137 -64 c-75 -34 -139 -60 -143 -57 -3 3 -5 24 -5 47 l0 43 102 38 102 39 -106 25 -106 25 -5 40 c-2 22 -2 43 -1 46 3 6 57 -8 237 -62z m4621 -134 c-4 -27 -7 -50 -8 -51 -7 -5 -293 -70 -297 -68 -3 2 -3 22 0 46 5 32 11 44 26 47 27 5 35 19 35 68 0 33 -4 43 -20 48 -21 7 -24 22 -14 73 l6 31 139 -72 139 -72 -6 -50z m-2386 100 c-4 -21 -1 -25 18 -25 20 0 24 -5 24 -30 0 -24 -6 -33 -27 -41 -27 -10 -242 -62 -548 -133 -82 -20 -161 -38 -174 -42 -20 -6 -22 -5 -13 12 5 10 7 24 5 31 -5 15 7 22 59 33 l43 9 -42 -3 c-28 -3 -43 0 -43 7 0 23 206 129 295 152 64 17 305 52 369 54 36 1 38 -1 34 -24z m-2161 -256 c53 -49 70 -152 36 -210 -22 -36 -87 -69 -137 -69 -90 0 -146 65 -146 168 0 42 5 57 28 82 55 62 167 76 219 29z m4362 -36 c69 -20 130 -40 135 -44 5 -5 -1 -45 -14 -96 -29 -108 -62 -149 -112 -139 -39 8 -68 33 -68 59 0 14 -4 17 -17 12 -10 -4 -42 -13 -71 -20 -57 -14 -72 -22 -57 -33 6 -4 54 -53 108 -108 l99 -102 -17 -33 c-29 -57 -23 -55 -180 -43 -80 7 -148 14 -151 17 -3 2 3 21 12 41 14 28 24 36 44 36 21 0 30 9 47 44 21 43 21 43 2 63 -19 19 -19 19 5 66 13 26 29 68 36 92 10 36 18 46 39 51 60 13 105 30 108 41 3 7 -18 18 -52 28 -44 13 -55 20 -51 33 3 9 8 29 12 45 3 15 8 27 11 27 3 0 62 -17 132 -37z m-1591 -161 c14 -9 22 -24 22 -43 0 -38 26 -51 72 -37 44 13 85 4 93 -21 8 -27 -2 -45 -37 -65 -25 -15 -43 -17 -96 -13 -69 7 -83 16 -74 50 7 26 -25 52 -45 36 -20 -17 -15 -31 7 -19 16 8 20 8 20 -4 0 -8 -5 -18 -11 -22 -8 -4 -7 -9 2 -14 9 -6 4 -15 -17 -34 -33 -28 -87 -36 -78 -11 4 8 0 22 -7 31 -11 13 -10 18 8 32 11 10 23 29 27 45 3 15 11 27 16 27 18 0 10 35 -10 48 -28 17 -25 30 8 34 38 4 73 -3 100 -20z m-2666 -127 c41 -28 88 -113 88 -160 0 -37 -32 -89 -73 -119 -40 -29 -145 -30 -177 -1 -28 25 -70 112 -70 145 0 28 20 72 35 77 18 5 57 -65 46 -85 -9 -17 1 -56 16 -65 40 -25 128 6 144 49 11 30 -20 89 -46 89 -19 0 -20 -4 -8 -46 3 -9 -6 -20 -22 -27 -25 -12 -27 -11 -51 44 -14 31 -26 60 -27 65 -2 7 84 55 103 58 3 1 22 -10 42 -24z m2322 -370 c60 -93 88 -154 80 -178 -8 -28 -61 -85 -96 -103 -44 -23 -93 -18 -117 12 -28 36 -44 98 -36 145 9 52 25 40 25 -18 0 -53 21 -83 57 -83 38 0 90 26 108 54 17 25 16 28 -24 102 -35 65 -52 124 -36 124 2 0 20 -25 39 -55z m-234 -87 c22 -37 25 -79 9 -129 -16 -47 -35 -59 -93 -60 -28 -1 -62 -4 -74 -8 -22 -6 -20 -8 21 -28 53 -26 62 -46 44 -98 -11 -31 -24 -44 -61 -63 -188 -94 -570 -58 -713 67 -57 49 -35 55 54 15 86 -38 182 -55 336 -61 153 -6 281 12 327 47 l25 19 -48 20 c-27 12 -53 21 -58 21 -16 0 -15 39 2 82 13 33 45 45 137 51 40 2 75 7 79 11 3 3 -5 27 -19 54 -19 37 -23 52 -15 70 14 30 24 28 47 -10z m611 -55 c12 -38 5 -105 -16 -157 -15 -36 -77 -96 -123 -120 -29 -15 -33 -14 -93 17 -79 40 -91 62 -22 40 46 -15 51 -14 101 7 60 26 122 89 122 124 0 14 -12 39 -26 56 -25 30 -26 33 -14 71 l13 39 23 -21 c13 -12 29 -37 35 -56z m1193 -75 c6 -30 -20 -129 -38 -140 -6 -4 -44 -8 -83 -8 -40 0 -73 -3 -73 -7 0 -5 19 -17 42 -28 28 -13 44 -28 48 -45 l6 -25 8 23 c9 26 15 27 41 8 11 -8 24 -12 30 -10 6 3 25 -2 41 -11 41 -21 72 -19 132 11 57 28 102 75 102 106 0 11 -10 37 -21 58 -19 34 -20 42 -9 69 16 39 25 39 50 -1 35 -58 23 -158 -26 -225 -24 -32 -120 -93 -145 -93 -8 1 -36 16 -64 35 l-50 35 -20 -25 c-19 -23 -23 -24 -40 -10 -29 21 -39 19 -53 -15 -10 -22 -28 -35 -70 -52 -50 -20 -75 -22 -212 -23 -177 0 -258 15 -375 70 -68 33 -146 98 -132 111 4 4 42 -9 84 -29 138 -64 298 -92 481 -85 112 4 192 23 192 45 0 5 -25 21 -55 36 -30 15 -55 31 -55 37 0 26 30 80 51 91 13 7 55 11 96 11 87 -2 95 7 64 70 -19 39 -19 44 -5 67 l17 24 17 -24 c10 -13 21 -36 24 -51z m-3370 -136 c42 -102 67 -119 131 -90 24 11 34 28 16 28 -19 0 -22 57 -6 97 20 50 47 65 110 61 59 -4 70 -23 18 -32 -55 -10 -87 -24 -100 -45 -31 -49 68 -60 155 -18 l52 25 0 -32 c0 -30 -6 -36 -72 -74 -40 -22 -95 -50 -121 -61 -53 -23 -126 -28 -144 -10 -8 8 -13 2 -18 -20 -9 -44 -45 -65 -100 -59 -41 5 -44 4 -47 -21 -3 -25 -5 -26 -81 -29 l-77 -3 -25 -39 c-23 -37 -29 -40 -68 -40 -56 0 -70 12 -107 89 -17 35 -42 78 -56 96 -14 19 -24 45 -24 65 0 46 13 32 75 -82 40 -73 56 -93 78 -99 44 -12 74 8 93 60 49 133 50 134 129 97 110 -50 165 -42 180 25 6 26 -1 48 -35 115 -27 54 -40 90 -35 101 6 16 9 15 29 -10 13 -16 35 -59 50 -95z m2137 -242 c345 -18 684 -59 947 -115 273 -57 606 -171 755 -257 26 -16 51 -28 54 -28 13 0 117 -96 134 -124 28 -45 23 -65 -6 -26 -85 116 -457 274 -868 370 -207 48 -470 85 -817 116 -241 21 -987 30 -1262 15 -774 -43 -1284 -151 -1729 -365 -84 -41 -155 -95 -189 -144 -30 -43 -37 -34 -11 15 40 75 98 122 228 186 404 198 985 323 1658 356 241 12 875 12 1106 1z"/>
<path d="M2909 5249 c-17 -17 -20 -30 -16 -66 8 -70 54 -104 99 -70 28 22 27 108 -2 137 -26 26 -55 25 -81 -1z"/>
<path d="M977 2560 c-41 -13 -57 -29 -57 -60 0 -57 66 -78 128 -40 24 15 32 27 32 48 0 52 -39 71 -103 52z"/>
</g>
</svg>